<mxfile host="app.diagrams.net" modified="2023-03-14T23:32:38.389Z" agent="5.0 (Windows)" etag="oPnx7w2Sj0ocq-WSuJbs" version="21.0.6" type="github">
  <diagram id="C5RBs43oDa-KdzZeNtuy" name="Page-1">
    <mxGraphModel dx="1185" dy="653" grid="1" gridSize="10" guides="1" tooltips="1" connect="1" arrows="1" fold="1" page="1" pageScale="1" pageWidth="827" pageHeight="1169" math="0" shadow="0">
      <root>
        <mxCell id="WIyWlLk6GJQsqaUBKTNV-0" />
        <mxCell id="WIyWlLk6GJQsqaUBKTNV-1" parent="WIyWlLk6GJQsqaUBKTNV-0" />
        <mxCell id="WIyWlLk6GJQsqaUBKTNV-3" value="MCU Sleep State" style="rounded=1;whiteSpace=wrap;html=1;fontSize=12;glass=0;strokeWidth=1;shadow=0;" parent="WIyWlLk6GJQsqaUBKTNV-1" vertex="1">
          <mxGeometry x="160" y="80" width="120" height="40" as="geometry" />
        </mxCell>
        <mxCell id="H9VmUg7sWRPf8SIbNJnk-0" value="" style="endArrow=classic;html=1;rounded=0;entryX=0;entryY=0.5;entryDx=0;entryDy=0;" edge="1" parent="WIyWlLk6GJQsqaUBKTNV-1" target="H9VmUg7sWRPf8SIbNJnk-3">
          <mxGeometry width="50" height="50" relative="1" as="geometry">
            <mxPoint x="280" y="100" as="sourcePoint" />
            <mxPoint x="320" y="100" as="targetPoint" />
          </mxGeometry>
        </mxCell>
        <mxCell id="H9VmUg7sWRPf8SIbNJnk-6" style="edgeStyle=orthogonalEdgeStyle;rounded=0;orthogonalLoop=1;jettySize=auto;html=1;" edge="1" parent="WIyWlLk6GJQsqaUBKTNV-1" source="H9VmUg7sWRPf8SIbNJnk-3">
          <mxGeometry relative="1" as="geometry">
            <mxPoint x="480" y="100" as="targetPoint" />
          </mxGeometry>
        </mxCell>
        <mxCell id="H9VmUg7sWRPf8SIbNJnk-3" value="&lt;div&gt;Timer 0&lt;/div&gt;&lt;div&gt;Interrupt&lt;br&gt;&lt;/div&gt;" style="shape=parallelogram;html=1;strokeWidth=1;perimeter=parallelogramPerimeter;whiteSpace=wrap;rounded=1;arcSize=0;size=0.23;" vertex="1" parent="WIyWlLk6GJQsqaUBKTNV-1">
          <mxGeometry x="320" y="80" width="116" height="40" as="geometry" />
        </mxCell>
        <mxCell id="H9VmUg7sWRPf8SIbNJnk-12" style="edgeStyle=orthogonalEdgeStyle;rounded=0;orthogonalLoop=1;jettySize=auto;html=1;entryX=0;entryY=0.5;entryDx=0;entryDy=0;" edge="1" parent="WIyWlLk6GJQsqaUBKTNV-1" source="H9VmUg7sWRPf8SIbNJnk-7" target="H9VmUg7sWRPf8SIbNJnk-11">
          <mxGeometry relative="1" as="geometry" />
        </mxCell>
        <mxCell id="H9VmUg7sWRPf8SIbNJnk-7" value="MCU Wake" style="rounded=1;whiteSpace=wrap;html=1;fontSize=12;glass=0;strokeWidth=1;shadow=0;" vertex="1" parent="WIyWlLk6GJQsqaUBKTNV-1">
          <mxGeometry x="480" y="80" width="120" height="40" as="geometry" />
        </mxCell>
        <mxCell id="H9VmUg7sWRPf8SIbNJnk-15" style="edgeStyle=orthogonalEdgeStyle;rounded=0;orthogonalLoop=1;jettySize=auto;html=1;entryX=0.5;entryY=0;entryDx=0;entryDy=0;" edge="1" parent="WIyWlLk6GJQsqaUBKTNV-1" source="H9VmUg7sWRPf8SIbNJnk-11" target="H9VmUg7sWRPf8SIbNJnk-14">
          <mxGeometry relative="1" as="geometry">
            <Array as="points">
              <mxPoint x="700" y="140" />
              <mxPoint x="700" y="140" />
            </Array>
          </mxGeometry>
        </mxCell>
        <mxCell id="H9VmUg7sWRPf8SIbNJnk-11" value="Enter ISR" style="rounded=1;whiteSpace=wrap;html=1;fontSize=12;glass=0;strokeWidth=1;shadow=0;" vertex="1" parent="WIyWlLk6GJQsqaUBKTNV-1">
          <mxGeometry x="640" y="80" width="120" height="40" as="geometry" />
        </mxCell>
        <mxCell id="H9VmUg7sWRPf8SIbNJnk-24" style="edgeStyle=orthogonalEdgeStyle;rounded=0;orthogonalLoop=1;jettySize=auto;html=1;entryX=1;entryY=0.5;entryDx=0;entryDy=0;" edge="1" parent="WIyWlLk6GJQsqaUBKTNV-1" source="H9VmUg7sWRPf8SIbNJnk-14" target="H9VmUg7sWRPf8SIbNJnk-23">
          <mxGeometry relative="1" as="geometry" />
        </mxCell>
        <mxCell id="H9VmUg7sWRPf8SIbNJnk-14" value="Sample IBUS" style="shape=process;whiteSpace=wrap;html=1;backgroundOutline=1;" vertex="1" parent="WIyWlLk6GJQsqaUBKTNV-1">
          <mxGeometry x="640" y="160" width="120" height="40" as="geometry" />
        </mxCell>
        <mxCell id="H9VmUg7sWRPf8SIbNJnk-28" style="edgeStyle=orthogonalEdgeStyle;rounded=0;orthogonalLoop=1;jettySize=auto;html=1;entryX=1;entryY=0.5;entryDx=0;entryDy=0;" edge="1" parent="WIyWlLk6GJQsqaUBKTNV-1" source="H9VmUg7sWRPf8SIbNJnk-16" target="H9VmUg7sWRPf8SIbNJnk-27">
          <mxGeometry relative="1" as="geometry" />
        </mxCell>
        <mxCell id="H9VmUg7sWRPf8SIbNJnk-16" value="Sample VBUS" style="shape=process;whiteSpace=wrap;html=1;backgroundOutline=1;" vertex="1" parent="WIyWlLk6GJQsqaUBKTNV-1">
          <mxGeometry x="640" y="240" width="120" height="40" as="geometry" />
        </mxCell>
        <mxCell id="H9VmUg7sWRPf8SIbNJnk-18" value="&amp;lt;1 micro second" style="text;html=1;align=center;verticalAlign=middle;resizable=0;points=[];autosize=1;strokeColor=none;fillColor=none;" vertex="1" parent="WIyWlLk6GJQsqaUBKTNV-1">
          <mxGeometry x="480" y="50" width="120" height="30" as="geometry" />
        </mxCell>
        <mxCell id="H9VmUg7sWRPf8SIbNJnk-20" value="50 micro seconds" style="text;html=1;align=center;verticalAlign=middle;resizable=0;points=[];autosize=1;strokeColor=none;fillColor=none;" vertex="1" parent="WIyWlLk6GJQsqaUBKTNV-1">
          <mxGeometry x="480" y="130" width="120" height="30" as="geometry" />
        </mxCell>
        <mxCell id="H9VmUg7sWRPf8SIbNJnk-21" value="50us" style="text;html=1;align=center;verticalAlign=middle;resizable=0;points=[];autosize=1;strokeColor=none;fillColor=none;" vertex="1" parent="WIyWlLk6GJQsqaUBKTNV-1">
          <mxGeometry x="480" y="210" width="50" height="30" as="geometry" />
        </mxCell>
        <mxCell id="H9VmUg7sWRPf8SIbNJnk-22" value="&amp;lt;1 micro second" style="text;html=1;align=center;verticalAlign=middle;resizable=0;points=[];autosize=1;strokeColor=none;fillColor=none;" vertex="1" parent="WIyWlLk6GJQsqaUBKTNV-1">
          <mxGeometry x="640" y="50" width="120" height="30" as="geometry" />
        </mxCell>
        <mxCell id="H9VmUg7sWRPf8SIbNJnk-25" style="edgeStyle=orthogonalEdgeStyle;rounded=0;orthogonalLoop=1;jettySize=auto;html=1;entryX=0.5;entryY=0;entryDx=0;entryDy=0;" edge="1" parent="WIyWlLk6GJQsqaUBKTNV-1" source="H9VmUg7sWRPf8SIbNJnk-23" target="H9VmUg7sWRPf8SIbNJnk-16">
          <mxGeometry relative="1" as="geometry">
            <Array as="points">
              <mxPoint x="540" y="220" />
              <mxPoint x="700" y="220" />
            </Array>
          </mxGeometry>
        </mxCell>
        <mxCell id="H9VmUg7sWRPf8SIbNJnk-23" value="Store to Array" style="rounded=1;whiteSpace=wrap;html=1;fontSize=12;glass=0;strokeWidth=1;shadow=0;" vertex="1" parent="WIyWlLk6GJQsqaUBKTNV-1">
          <mxGeometry x="480" y="160" width="120" height="40" as="geometry" />
        </mxCell>
        <mxCell id="H9VmUg7sWRPf8SIbNJnk-31" style="edgeStyle=orthogonalEdgeStyle;rounded=0;orthogonalLoop=1;jettySize=auto;html=1;entryX=0.5;entryY=0;entryDx=0;entryDy=0;" edge="1" parent="WIyWlLk6GJQsqaUBKTNV-1" source="H9VmUg7sWRPf8SIbNJnk-27" target="H9VmUg7sWRPf8SIbNJnk-30">
          <mxGeometry relative="1" as="geometry" />
        </mxCell>
        <mxCell id="H9VmUg7sWRPf8SIbNJnk-27" value="Store to Array" style="rounded=1;whiteSpace=wrap;html=1;fontSize=12;glass=0;strokeWidth=1;shadow=0;" vertex="1" parent="WIyWlLk6GJQsqaUBKTNV-1">
          <mxGeometry x="480" y="240" width="120" height="40" as="geometry" />
        </mxCell>
        <mxCell id="H9VmUg7sWRPf8SIbNJnk-36" style="edgeStyle=orthogonalEdgeStyle;rounded=0;orthogonalLoop=1;jettySize=auto;html=1;entryX=0.5;entryY=0;entryDx=0;entryDy=0;" edge="1" parent="WIyWlLk6GJQsqaUBKTNV-1" source="H9VmUg7sWRPf8SIbNJnk-30" target="H9VmUg7sWRPf8SIbNJnk-34">
          <mxGeometry relative="1" as="geometry" />
        </mxCell>
        <mxCell id="H9VmUg7sWRPf8SIbNJnk-30" value="&lt;div&gt;Calculate averages&lt;/div&gt;&lt;div&gt;of arrays&lt;br&gt;&lt;/div&gt;" style="rounded=1;whiteSpace=wrap;html=1;fontSize=12;glass=0;strokeWidth=1;shadow=0;" vertex="1" parent="WIyWlLk6GJQsqaUBKTNV-1">
          <mxGeometry x="480" y="320" width="120" height="40" as="geometry" />
        </mxCell>
        <mxCell id="H9VmUg7sWRPf8SIbNJnk-33" value="100us" style="text;html=1;align=center;verticalAlign=middle;resizable=0;points=[];autosize=1;strokeColor=none;fillColor=none;" vertex="1" parent="WIyWlLk6GJQsqaUBKTNV-1">
          <mxGeometry x="475" y="290" width="60" height="30" as="geometry" />
        </mxCell>
        <mxCell id="H9VmUg7sWRPf8SIbNJnk-42" style="edgeStyle=orthogonalEdgeStyle;rounded=0;orthogonalLoop=1;jettySize=auto;html=1;" edge="1" parent="WIyWlLk6GJQsqaUBKTNV-1" source="H9VmUg7sWRPf8SIbNJnk-34">
          <mxGeometry relative="1" as="geometry">
            <mxPoint x="440" y="420" as="targetPoint" />
          </mxGeometry>
        </mxCell>
        <mxCell id="H9VmUg7sWRPf8SIbNJnk-34" value="&lt;div&gt;Sample PV and Wind&lt;/div&gt;&lt;div&gt;Capacities&lt;br&gt;&lt;/div&gt;" style="rounded=1;whiteSpace=wrap;html=1;fontSize=12;glass=0;strokeWidth=1;shadow=0;" vertex="1" parent="WIyWlLk6GJQsqaUBKTNV-1">
          <mxGeometry x="480" y="400" width="120" height="40" as="geometry" />
        </mxCell>
        <mxCell id="H9VmUg7sWRPf8SIbNJnk-44" style="edgeStyle=orthogonalEdgeStyle;rounded=0;orthogonalLoop=1;jettySize=auto;html=1;entryX=1;entryY=0.5;entryDx=0;entryDy=0;" edge="1" parent="WIyWlLk6GJQsqaUBKTNV-1" source="H9VmUg7sWRPf8SIbNJnk-41" target="H9VmUg7sWRPf8SIbNJnk-43">
          <mxGeometry relative="1" as="geometry" />
        </mxCell>
        <mxCell id="H9VmUg7sWRPf8SIbNJnk-41" value="&lt;div&gt;Execute main&lt;/div&gt;&lt;div&gt;Algorithm&lt;br&gt;&lt;/div&gt;" style="shape=process;whiteSpace=wrap;html=1;backgroundOutline=1;" vertex="1" parent="WIyWlLk6GJQsqaUBKTNV-1">
          <mxGeometry x="318" y="400" width="120" height="40" as="geometry" />
        </mxCell>
        <mxCell id="H9VmUg7sWRPf8SIbNJnk-45" style="edgeStyle=orthogonalEdgeStyle;rounded=0;orthogonalLoop=1;jettySize=auto;html=1;" edge="1" parent="WIyWlLk6GJQsqaUBKTNV-1" source="H9VmUg7sWRPf8SIbNJnk-43">
          <mxGeometry relative="1" as="geometry">
            <mxPoint x="220" y="360" as="targetPoint" />
          </mxGeometry>
        </mxCell>
        <mxCell id="H9VmUg7sWRPf8SIbNJnk-43" value="&lt;div&gt;Execute LCD&lt;/div&gt;&lt;div&gt;Driver&lt;br&gt;&lt;/div&gt;" style="shape=process;whiteSpace=wrap;html=1;backgroundOutline=1;" vertex="1" parent="WIyWlLk6GJQsqaUBKTNV-1">
          <mxGeometry x="160" y="400" width="120" height="40" as="geometry" />
        </mxCell>
        <mxCell id="H9VmUg7sWRPf8SIbNJnk-50" style="edgeStyle=orthogonalEdgeStyle;rounded=0;orthogonalLoop=1;jettySize=auto;html=1;entryX=0.5;entryY=1;entryDx=0;entryDy=0;" edge="1" parent="WIyWlLk6GJQsqaUBKTNV-1" source="H9VmUg7sWRPf8SIbNJnk-47" target="H9VmUg7sWRPf8SIbNJnk-49">
          <mxGeometry relative="1" as="geometry" />
        </mxCell>
        <mxCell id="H9VmUg7sWRPf8SIbNJnk-47" value="&lt;div&gt;Update Mains&lt;/div&gt;&lt;div&gt;Request PWM&lt;br&gt;&lt;/div&gt;" style="shape=process;whiteSpace=wrap;html=1;backgroundOutline=1;" vertex="1" parent="WIyWlLk6GJQsqaUBKTNV-1">
          <mxGeometry x="160" y="320" width="120" height="40" as="geometry" />
        </mxCell>
        <mxCell id="H9VmUg7sWRPf8SIbNJnk-52" style="edgeStyle=orthogonalEdgeStyle;rounded=0;orthogonalLoop=1;jettySize=auto;html=1;entryX=0.5;entryY=1;entryDx=0;entryDy=0;" edge="1" parent="WIyWlLk6GJQsqaUBKTNV-1" source="H9VmUg7sWRPf8SIbNJnk-49" target="H9VmUg7sWRPf8SIbNJnk-51">
          <mxGeometry relative="1" as="geometry" />
        </mxCell>
        <mxCell id="H9VmUg7sWRPf8SIbNJnk-49" value="&lt;div&gt;Compensate for&lt;/div&gt;&lt;div&gt;frequency drift&lt;br&gt;&lt;/div&gt;" style="shape=process;whiteSpace=wrap;html=1;backgroundOutline=1;" vertex="1" parent="WIyWlLk6GJQsqaUBKTNV-1">
          <mxGeometry x="160" y="240" width="120" height="40" as="geometry" />
        </mxCell>
        <mxCell id="H9VmUg7sWRPf8SIbNJnk-53" style="edgeStyle=orthogonalEdgeStyle;rounded=0;orthogonalLoop=1;jettySize=auto;html=1;entryX=0.5;entryY=1;entryDx=0;entryDy=0;" edge="1" parent="WIyWlLk6GJQsqaUBKTNV-1" source="H9VmUg7sWRPf8SIbNJnk-51" target="WIyWlLk6GJQsqaUBKTNV-3">
          <mxGeometry relative="1" as="geometry" />
        </mxCell>
        <mxCell id="H9VmUg7sWRPf8SIbNJnk-51" value="Idle" style="rounded=1;whiteSpace=wrap;html=1;fontSize=12;glass=0;strokeWidth=1;shadow=0;" vertex="1" parent="WIyWlLk6GJQsqaUBKTNV-1">
          <mxGeometry x="160" y="160" width="120" height="40" as="geometry" />
        </mxCell>
        <mxCell id="H9VmUg7sWRPf8SIbNJnk-54" value="&lt;h1&gt;&lt;font style=&quot;font-size: 23px;&quot;&gt;&lt;font style=&quot;font-size: 22px;&quot;&gt;&lt;font style=&quot;font-size: 21px;&quot;&gt;&lt;font style=&quot;font-size: 20px;&quot;&gt;&lt;font style=&quot;font-size: 19px;&quot;&gt;Low-load Idle States&lt;/font&gt;&lt;/font&gt;&lt;/font&gt;&lt;/font&gt;&lt;/font&gt;&lt;br&gt;&lt;/h1&gt;By only executing on the 50Hz timer interrupt, our MCU operates from anywhere between 2% and 70% utilisation, depending on how quickly input values are changing.&amp;nbsp; This allows us to put the MCU to sleep whenever it is idle, saving power." style="text;html=1;strokeColor=none;fillColor=none;spacing=5;spacingTop=-20;whiteSpace=wrap;overflow=hidden;rounded=0;" vertex="1" parent="WIyWlLk6GJQsqaUBKTNV-1">
          <mxGeometry x="285" y="150" width="190" height="210" as="geometry" />
        </mxCell>
      </root>
    </mxGraphModel>
  </diagram>
</mxfile>
